<svg width="174" height="70" fill="none" xmlns="http://www.w3.org/2000/svg"><path d="M57.773 70h-17.63a1 1 0 0 1-1-1V18.5a1 1 0 0 1 1-1h17.784c5.286 0 9.836 1.051 13.652 3.153 3.815 2.085 6.749 5.084 8.801 8.998 2.07 3.914 3.105 8.596 3.105 14.048 0 5.468-1.035 10.168-3.105 14.099-2.052 3.93-5.004 6.947-8.853 9.049C67.695 68.949 63.11 70 57.773 70Zm-7.52-10.51a1 1 0 0 0 1 1h6.058c3.284 0 6.047-.582 8.288-1.744 2.259-1.179 3.952-2.999 5.081-5.46 1.147-2.478 1.72-5.674 1.72-9.587 0-3.88-.573-7.05-1.72-9.51-1.129-2.462-2.814-4.273-5.055-5.435-2.241-1.162-5.004-1.744-8.289-1.744h-6.082a1 1 0 0 0-1 1v31.48ZM85.974 70a1 1 0 0 1-1-1V18.5a1 1 0 0 1 1-1h33.413a1 1 0 0 1 1 1v7.152a1 1 0 0 1-1 1H97.085a1 1 0 0 0-1 1v10.51a1 1 0 0 0 1 1h20.48a1 1 0 0 1 1 1v7.151a1 1 0 0 1-1 1h-20.48a1 1 0 0 0-1 1v10.535a1 1 0 0 0 1 1h22.404a1 1 0 0 1 1 1V69a1 1 0 0 1-1 1H85.974Zm49.087-52.5a1 1 0 0 1 .953.697l12.407 38.958a.333.333 0 0 0 .635 0l12.432-38.959a1 1 0 0 1 .953-.696h10.184a1 1 0 0 1 .945 1.326l-17.427 50.5a1 1 0 0 1-.945.674h-12.894a1 1 0 0 1-.945-.673l-17.452-50.5a1 1 0 0 1 .946-1.327h10.208Z" fill="#fff"/><path d="M1 12.202a1 1 0 0 1-1-1V1a1 1 0 0 1 1-1h55.55a1 1 0 0 1 1 1v10.202a1 1 0 0 1-1 1H37.097a1 1 0 0 0-1 1V69a1 1 0 0 1-1 1H22.453a1 1 0 0 1-1-1V13.202a1 1 0 0 0-1-1H1Z" fill="#A6D7F1"/><path d="M16.83 17.5a1 1 0 0 1 1 .995l.231 50.5a1 1 0 0 1-1 1.005H1.235a1 1 0 0 1-1-.995l-.23-50.5a1 1 0 0 1 1-1.005H16.83Z" fill="#FF9F1C"/></svg>